<?xml version='1.0' encoding='utf-8'?>
<svg xmlns="http://www.w3.org/2000/svg" version="1.1" viewBox="0 0 612 408"> <g fill="none" stroke-width="2"> <path d="m394.01 120.34q-17.81-27.34-21.7-33.4-5.54-8.65-13.38-14.4" stroke="#ebc4c6" vector-effect="non-scaling-stroke"/> <path d="m358.93 72.54q-0.29-3.21-2.69-4.18-0.81-0.33-4.33-1-3.6-0.68-6.83 0.67-2.62 1.08-5.65 3.51-5.3 4.24-7.12 11.76-0.51 2.11-2.02 3.67-1.27 1.31-3.08 0.53" stroke="#f3f3f3" vector-effect="non-scaling-stroke"/> <path d="m369.84 147.62q-11.04-27.64-34.84-45.91" stroke="#ebc4c6" vector-effect="non-scaling-stroke"/> <path d="m358.93 72.54q-8.04-4.58-15.37 0.02-8.24 5.18-9.38 14.87-0.28 2.4 0.18 7.14 0.34 3.57 0.64 7.14" stroke="#deb8b9" vector-effect="non-scaling-stroke"/> <path d="m335 101.71-8-4.42" stroke="#f3f3f3" vector-effect="non-scaling-stroke"/> <path d="m381.71 208.25q-0.1-0.76-0.68-1.11a1 0.85 15.7 0 1-0.47-0.7q-0.1-1.37-1.56-0.94-6.01 1.77-11.54 1.72-3.46-0.03-10.26-1.86-8.03-2.16-10.2-2.36-5.79-0.53-10.44 1.56-2.7 1.22-1.81 4.65" stroke="#fafafa" vector-effect="non-scaling-stroke"/> <path d="m334.75 209.21q-4.5 1.07-0.19 1.44 0.56 0.05 0.98 0.19 6.49 2.1 8 8.91" stroke="#bdbcbd" vector-effect="non-scaling-stroke"/> <path d="m343.54 219.75q1.16 7.1-2.83 13" stroke="#e1e1e2" vector-effect="non-scaling-stroke"/> <path d="m340.71 232.75q-1.26 0.01-1.44-1.14-0.17-1.13-0.19-1.21-1.53-4.81-4.66-1.99-0.27 0.25-1.45 2.36-0.76 1.37-2.51 1.73" stroke="#f5f5f5" vector-effect="non-scaling-stroke"/> <path d="m330.46 232.5q3.14-5.79 1.72-12.41" stroke="#bdbcbd" vector-effect="non-scaling-stroke"/> <path d="m332.18 220.09q-2.67 0.88-3.33 3.67a0.75 0.62-70.4 0 0 0.29 0.8q0.71 0.39 1.15-0.75 0.49-1.28 1.5-0.81" stroke="#eeedee" vector-effect="non-scaling-stroke"/> <path d="m331.79 223q-3.75 21.03-23.79 28.04" stroke="#bdbcbd" vector-effect="non-scaling-stroke"/> <path d="m308 251.04q-2.55-0.12-5.1 0.12-0.39 0.03-0.66-0.05-0.76-0.24-0.32-0.7 0.2-0.21 0.62-0.3 2.59-0.62 5.06-1.39 1.42-0.45 0.1-1.15-2.63-1.4-4.82-3.33-1.97-1.74-3.6-4.54-4.46-7.67-6.32-16.45" stroke="#f4f4f3" vector-effect="non-scaling-stroke"/> <path d="m292.96 223.25q6.7-5.11 10.79-12.46" stroke="#a89f96" vector-effect="non-scaling-stroke"/> <path d="m303.75 210.79q3.84-5.98 3.04-13.04" stroke="#c5c4c5" vector-effect="non-scaling-stroke"/> <path d="m306.79 197.75q0.11-3.42-1.33-6.5" stroke="#928d8a" vector-effect="non-scaling-stroke"/> <path d="m305.46 191.25q-0.32-2.29 0.62-4.25a1.3 1.1-0.7 0 1 0.69-0.6q5.28-1.99 0.14-4.55-0.33-0.16-0.59-0.46-1.3-1.51-0.88 0.56a0.66 0.66 89.7 0 1-0.77 0.78q-2.08-0.39-4.11-1.06-1.3-0.43-3.86-1.75-7.15-3.67-15.21-4.53-5.65-0.6-14.68-0.08-6.54 0.39-12.16 2.19-6.37 2.04-10.82 4.59-5.61 3.22-8.52 8.47-3.3 5.97-5.31 10.44-2.11 4.68-5.78 7.81a0.25 0.23-36.1 0 1-0.37-0.04l-0.16-0.26a0.61 0.46 60.5 0 0-0.67-0.29q-2.93 1.45-3.29 0.34a1.01 0.28 74.2 0 0-0.46-0.75l-0.53-0.11q-0.85-0.19-0.91-0.22-10.57-6.7-21.52-1.42-3.17 1.54-5.46 5.04-0.22 0.34-0.84 2.34-0.41 1.31-1.72 2.06" stroke="#fafafa" vector-effect="non-scaling-stroke"/> <path d="m375.57 224.36q-1.49-2.29-2.05 0.58a1.7 1.2 81.4 0 1-0.43 0.86l-14.34 13.99" stroke="#fafafa" vector-effect="non-scaling-stroke"/> <path d="m358.75 239.79q-11.58 6.16-23.42 11.8-0.37 0.18-0.69 0.18-1.2-0.01-0.14-0.98" stroke="#dddee1" vector-effect="non-scaling-stroke"/> <path d="m334.5 250.79q2.76-1.03 2.88-4.53" stroke="#8d8884" vector-effect="non-scaling-stroke"/> <path d="m337.38 246.26q2.77-9.72 6.43-16.2 3.05-5.39 1.23-10.81" stroke="#dcdbdc" vector-effect="non-scaling-stroke"/> <path d="m345.04 219.25q-2.11-8.14-10.29-10.04" stroke="#b8b7b7" vector-effect="non-scaling-stroke"/> <path d="m330.46 232.5q-3.35 8.17-10.21 13.71" stroke="#b3b2b3" vector-effect="non-scaling-stroke"/> <path d="m320.25 246.21q-5.39 4.04-11.75 6.25" stroke="#acaaab" vector-effect="non-scaling-stroke"/> <path d="m308.5 252.46q0.06-0.76-0.5-1.25" stroke="#584f4b" vector-effect="non-scaling-stroke"/> <path d="m308 251.21v-0.17" stroke="#b2b1b1" vector-effect="non-scaling-stroke"/> <path d="m302.54 210.75q0.12-0.55-0.04-1.04" stroke="#a49d99" vector-effect="non-scaling-stroke"/> <path d="m305.46 191.25q-3.23-4.94-8.27-7.19-26.3-11.7-51.88 1.75-13.08 6.88-8.02 21.69" stroke="#8d8884" vector-effect="non-scaling-stroke"/> <path d="m237.29 207.5q2.43 8.29 8.92 14" stroke="#a39990" vector-effect="non-scaling-stroke"/> <path d="m246.21 221.5q9.99 8.95 23.37 12.33a1.92 1.64 7.7 0 1 1.44 1.61l0.21 7.74a1.02 0.85-20.1 0 1-0.46 0.79q-8.41 5.68-18.27 8.32" stroke="#958c88" vector-effect="non-scaling-stroke"/> <path d="m252.5 252.29-4.75 0.75" stroke="#c7a9ab" vector-effect="non-scaling-stroke"/> <path d="m247.75 253.04h-1.5" stroke="#958c88" vector-effect="non-scaling-stroke"/> <path d="m246.25 253.04q-4.06 0.32-6.94-1.1-21.27-10.53-21.13-34.63 0-0.51-0.14-0.02-1.21 4.07-0.79 6.96 3.33 22.78 25.07 30.12" stroke="#c0bfc0" vector-effect="non-scaling-stroke"/> <path d="m242.32 254.37q1.32 2.13 2.18 7.63 2.48 15.92 16.4 25.96" stroke="#958c88" vector-effect="non-scaling-stroke"/> <path d="m260.9 287.96q0.09 1-0.87 1.19a1.15 0.39 40 0 1-0.78-0.3q-0.26-0.18-0.54-0.07a0.61 0.47 68.2 0 0-0.21 0.75q4.42 10.77 10.59 20.64 6.27 10.06 15.58 17.38 4.35 3.42 9.56 5.25 6.83 2.38 11.69-2.62 3.74-3.86 5.52-8.24 8.76-21.64 10.86-45.69 0.52-5.98 0.89-7.31 0.55-2-0.14-3.9" stroke="#ededed" vector-effect="non-scaling-stroke"/> <path d="m323.05 265.04q10.75-7.07 21.64-13.85 5.91-3.68 13.52-10.44" stroke="#dddee1" vector-effect="non-scaling-stroke"/> <path d="m358.21 240.75q0.97 4.26 1.07 8.6 0.13 5.66 0.14 5.82 1.53 29.66-4.22 58.82-3.63 18.44-13.43 34.34-0.04 0.08-2.03 3.54-2.03 3.55-5.11 6.3a1.31 1.3 23.9 0 1-0.87 0.33q-50.13 0.41-100.26 0.33-0.89 0-0.66-0.22 0.11-0.11 0.35-0.11 13.91 0 27.92 0 3.39 0 1.39-2.74-15.8-21.63-23-48.01-4.53-16.59-8.82-46.72" stroke="#fafafa" vector-effect="non-scaling-stroke"/> <path d="m230.68 261.03q8.53 6.26 15.85 12.88 0.55 0.5 0.29-0.2-3.12-8.39-4.79-17.16a1.08 0.98-83.6 0 0-0.53-0.73l-16.31-8.36" stroke="#e2e2e4" vector-effect="non-scaling-stroke"/> <path d="m225.19 247.46-2.94-2.75" stroke="#8d8884" vector-effect="non-scaling-stroke"/> <path d="m222.25 244.71q-1.02-1.52-5.81-10.15-5.75-10.34-0.25-19.63 0.95-1.62 2.06-2.47 1.27-0.98 2.92-1.51 1.86-0.61-0.1-0.75-1.17-0.08-2.66 1-8.5 6.17-5.72 16.86 2.37 9.17 8.52 18.69" stroke="#b8b7b7" vector-effect="non-scaling-stroke"/> <path d="m221.21 246.75 2.08 1.75" stroke="#8d8884" vector-effect="non-scaling-stroke"/> <path d="m223.29 248.5q3.58 0.55 0.71 1.5-1.13 0.38-2.24-0.8-0.33-0.36-0.8-0.53l-2.32-0.83" stroke="#e2e2e4" vector-effect="non-scaling-stroke"/> <path d="m337.38 246.26q-0.43-1.45-2.15-0.06" stroke="#746f6c" vector-effect="non-scaling-stroke"/> <path d="m335.23 246.2q1.77-7.14 5.48-13.45" stroke="#d7d6d8" vector-effect="non-scaling-stroke"/> <path d="m231 102.79q-22.56 19.21-32.81 47.06" stroke="#ebc4c6" vector-effect="non-scaling-stroke"/> <path d="m345.04 219.25q-0.6 0.64-1.5 0.5" stroke="#9f9e9f" vector-effect="non-scaling-stroke"/> <path d="m308 251.21-5 0.83" stroke="#8f8681" vector-effect="non-scaling-stroke"/> <path d="m303 252.04q-9.89-0.16-19.25-3.33" stroke="#c1a3a5" vector-effect="non-scaling-stroke"/> <path d="m306.79 197.75q-0.55 6.55-4.29 11.96" stroke="#585250" vector-effect="non-scaling-stroke"/> <path d="m302.5 209.71q-3.19 3.7-7.66 5.67-9.39 4.12-15.81-2.94" stroke="#71665d" vector-effect="non-scaling-stroke"/> <path d="m279.03 212.44q-4.13-8.57 4.22-8.98" stroke="#3b2d20" vector-effect="non-scaling-stroke"/> <path d="m283.25 203.46q2.95 1.09 4.94 3.85 1.71 2.39 4.32 3.26 2.33 0.79 5.02-0.38 8.39-3.66 7.28-14.13-0.23-2.16-1.04-3.71-0.67-1.28-2.85-2.22-2.19-0.95-3.86-2.19-3.48-2.61-7.31-3.4" stroke="#37291d" vector-effect="non-scaling-stroke"/> <path d="m289.75 184.54q-1.07-0.48-2.25-0.5" stroke="#483c2f" vector-effect="non-scaling-stroke"/> <path d="m287.5 184.04q-15.71-3.03-31.5-0.25" stroke="#54483e" vector-effect="non-scaling-stroke"/> <path d="m256 183.79-3.5 1" stroke="#483c2f" vector-effect="non-scaling-stroke"/> <path d="m252.5 184.79q-4.26 1.81-8.44 3.81-2.25 1.07-3.57 2.53-1.95 2.15-2.24 3.87-0.6 3.52 0.35 1.15 2.12-5.32 7.21-2.64a1.34 1.31-37.6 0 0 0.93 0.11l11.51-2.83" stroke="#372c21" vector-effect="non-scaling-stroke"/> <path d="m258.25 190.79 3.75-0.25" stroke="#483c2f" vector-effect="non-scaling-stroke"/> <path d="m262 190.54q10.25-0.67 20.5 0" stroke="#54483e" vector-effect="non-scaling-stroke"/> <path d="m282.5 190.54q2.54 0.75 5.21 0.46" stroke="#483c2f" vector-effect="non-scaling-stroke"/> <path d="m287.71 191 3.79 0.71" stroke="#37291d" vector-effect="non-scaling-stroke"/> <path d="m291.5 191.71q3.54 0.62 7.44 2.6 2.25 1.15 1.15 3.01" stroke="#37291d" vector-effect="non-scaling-stroke"/> <path d="m300.09 197.32-1.09-0.53" stroke="#37291d" vector-effect="non-scaling-stroke"/> <path d="m299 196.79q-2.54-1.73-5.5-2.55-18.59-5.12-37.42-0.86-5.05 1.14-9.8 3.74" stroke="#867d77" vector-effect="non-scaling-stroke"/> <path d="m246.28 197.12q-4.18 1.27-7.49 4.47a1.4 1.31-20.5 0 0-0.41 0.83q-0.48 5.36 4.3 7.72 4.9 2.41 8.34-1.63 2.49-2.93 5.76-5.13 2.6-1.76 4.71 0.57 1.37 1.51 1.84 5.48" stroke="#3b2d20" vector-effect="non-scaling-stroke"/> <path d="m263.33 209.43q-1.6 3.91-5.39 6.01-4.98 2.75-10.19 0.81-3.77-1.4-8.3-6.16" stroke="#675a52" vector-effect="non-scaling-stroke"/> <path d="m239.45 210.09q-0.45-1.69-2.16-2.59" stroke="#3b2d20" vector-effect="non-scaling-stroke"/> <path d="m332.18 220.09-0.39 2.91" stroke="#acaaab" vector-effect="non-scaling-stroke"/> <path d="m279.03 212.44q3.92 8.18 13.23 5.59 6.47-1.81 10.28-7.28" stroke="#877869" vector-effect="non-scaling-stroke"/> <path d="m302.54 210.75 1.21 0.04" stroke="#6e645c" vector-effect="non-scaling-stroke"/> <path d="m292.96 223.25-9.21 5.21" stroke="#9d938a" vector-effect="non-scaling-stroke"/> <path d="m283.75 228.46q0.9-1.15 2.29-1.7 2.73-1.08 3.29-4.52 0.1-0.58-0.4-0.3l-15.78 8.83a1.12 1.09-17.4 0 1-1.66-0.84q-0.87-9.78-0.69-19 0.01-0.33 0.13-0.73 0.29-1-0.1-0.75a0.95 0.77 77.4 0 0-0.36 0.73l-0.46 20.3a0.38 0.36-77.5 0 1-0.52 0.35l-22.04-10.11a0.75 0.49 26.6 0 0-0.84 0.1l-0.4 0.68" stroke="#433124" vector-effect="non-scaling-stroke"/> <path d="m239.45 210.09q2.09 5.53 7.05 7.41 12.95 4.9 16.83-8.07" stroke="#7d6c5e" vector-effect="non-scaling-stroke"/> <path d="m335.23 246.2-2.98 4.01" stroke="#888380" vector-effect="non-scaling-stroke"/> <path d="m332.25 250.21q-1.87-0.32-3.1 0.93-1.63 1.65-3.4 3.15" stroke="#d8d9dc" vector-effect="non-scaling-stroke"/> <path d="m325.75 254.29q-1.56-0.49-1.92-2.04-0.1-0.45-0.38-0.9l-3.2-5.14" stroke="#e3e3e4" vector-effect="non-scaling-stroke"/> <path d="m323.05 265.04q-11.96 10.52-25.87 18.22" stroke="#d6d7da" vector-effect="non-scaling-stroke"/> <path d="m297.18 283.26 3.78-5.51" stroke="#7d7674" vector-effect="non-scaling-stroke"/> <path d="m300.96 277.75q0.65 1.03 1.6 0.06 11.58-11.77 23.19-23.52" stroke="#d1d2d5" vector-effect="non-scaling-stroke"/> <path d="m332.25 250.21q1.07 0.56 2.25 0.58" stroke="#757271" vector-effect="non-scaling-stroke"/> <path d="m224 359.21q-2.38-23.02-13.04-43.53" stroke="#e1e1e2" vector-effect="non-scaling-stroke"/> <path d="m218.01 249.59q7 5.1 12.67 11.44" stroke="#e7e7e9" vector-effect="non-scaling-stroke"/> <path d="m358.21 240.75q0.44-0.4 0.54-0.96" stroke="#e2e4e6" vector-effect="non-scaling-stroke"/> <path d="m300.96 277.75q3.63-6.91 5.5-14.5" stroke="#89807c" vector-effect="non-scaling-stroke"/> <path d="m306.46 263.25q-0.26 1.43 0.63 1.24a1.1 0.84-80.7 0 0 0.67-0.63q1.85-4.42 0.38-8.89" stroke="#e3e3e4" vector-effect="non-scaling-stroke"/> <path d="m308.14 254.97q-0.53-1.4 0.36-2.51" stroke="#89807c" vector-effect="non-scaling-stroke"/> <path d="m308.14 254.97-1.68 8.28" stroke="#908783" vector-effect="non-scaling-stroke"/> <path d="m297.18 283.26q-16.53 12.91-36.28 4.7" stroke="#8e8581" vector-effect="non-scaling-stroke"/> <path d="m248.04 253.75q-0.83 8.04 1.27 14.19 3.28 9.58 13.52 13.19 7.15 2.52 14.41 1.92 7.52-0.62 13.3-4.64 9.26-6.42 11-18.91" stroke="#936f6a" vector-effect="non-scaling-stroke"/> <path d="m301.54 259.5q0.96-2.92 0.67-6" stroke="#896260" vector-effect="non-scaling-stroke"/> <path d="m222.25 244.71q-1.52 0.26-1.04 2.04" stroke="#504a47" vector-effect="non-scaling-stroke"/> <path d="m283.75 228.46-11.22 5.16a0.76 0.69-15.5 0 0-0.44 0.69q0.14 2.87 0.3 5.74 0.13 2.27 1.31 3.49 1.29 1.33 3.24 2.27 4.31 2.09 6.81 2.9" stroke="#8f8681" vector-effect="non-scaling-stroke"/> <path d="m283.75 248.71q-0.09 0.91-0.75 1.33" stroke="#67413f" vector-effect="non-scaling-stroke"/> <path d="m283 250.04-9.97-3.42a2.16 1.67 37.2 0 0-1.43 0.01l-10.6 4.58" stroke="#4a3727" vector-effect="non-scaling-stroke"/> <path d="m261 251.21q-6.6 1.73-7.81 1.98-0.93 0.18-0.69-0.9" stroke="#67413f" vector-effect="non-scaling-stroke"/> <path d="m277.56 254.03-0.83 1.77q-0.16 0.34-0.25 0.94-0.23 1.39-2.41 0.03-0.32-0.19-0.67-0.3-8.37-2.54-17.15-1.26" stroke="#a86c71" vector-effect="non-scaling-stroke"/> <path d="m256.25 255.21-6.71 1.04" stroke="#b6787d" vector-effect="non-scaling-stroke"/> <path d="m249.54 256.25q0.18-2.08-1.5-2.5" stroke="#c58b8d" vector-effect="non-scaling-stroke"/> <path d="m248.04 253.75q-0.04-0.4-0.29-0.71" stroke="#67413f" vector-effect="non-scaling-stroke"/> <path d="m246.25 253.04q-1.73 0.52-2.5 0.21-1.68-0.69-1.43 1.12" stroke="#605753" vector-effect="non-scaling-stroke"/> <path d="m225.19 247.46q-0.59 1.66-1.9 1.04" stroke="#7a7574" vector-effect="non-scaling-stroke"/> <path d="m230.38 101.65q-0.07-3.08-0.14-7.15-0.16-8.9-5.88-15.62-6.77-7.96-16.86-4.17" stroke="#dfb9ba" vector-effect="non-scaling-stroke"/> <path d="m229.5 76.21q-2.29 0.62-3.19-0.27-7.4-7.35-17-3.68-0.87 0.33-1.24 0.93-0.44 0.67-0.57 1.52" stroke="#f4f4f3" vector-effect="non-scaling-stroke"/> <path d="m207.5 74.71q-5.08 2.68-8.49 7.3-3.43 4.63-6.3 9.64-8.23 14.4-17.35 27.65" stroke="#ebc4c6" vector-effect="non-scaling-stroke"/> <path d="m303 252.04q-1.06 0.3-0.79 1.46" stroke="#67413f" vector-effect="non-scaling-stroke"/> <path d="m302.21 253.5-1.71 0.29" stroke="#bb7e83" vector-effect="non-scaling-stroke"/> <path d="m300.5 253.79-14.5-2.58" stroke="#a86c71" vector-effect="non-scaling-stroke"/> <path d="m283.25 203.46q1.54-2.92 4.83-2.56 0.76 0.08 1.33 0.03 0.67-0.06 1.34-0.08 2.17-0.04 1.86-1.87a1.66 0.92 67.1 0 1 0.1-0.94q0.79-1.44 2.54-1.58" stroke="#4d3b29" vector-effect="non-scaling-stroke"/> <path d="m295.25 196.46q1.86 0.57 3.75 0.33" stroke="#988b80" vector-effect="non-scaling-stroke"/> <path d="m300.09 197.32q0.49 0.59 1.39 1.03 0.43 0.22 0.75 0.62 0.92 1.14 1.54 0.22a1.26 0.96 59.6 0 0 0.11-0.92q-0.4-1.49-0.97-2.92-0.57-1.46-1.74-2.44-3.15-2.65-7.13-3.95a1.08 0.94 33.6 0 0-0.9 0.12q-1.29 0.94-1.64 2.63" stroke="#493725" vector-effect="non-scaling-stroke"/> <path d="m258.25 190.79-0.88-4.21a1.39 1.31 76.4 0 0-1.66-1.08q-3.2 0.92-3.21-0.71" stroke="#5a4d3c" vector-effect="non-scaling-stroke"/> <path d="m287.5 184.04q0.61 1.5-1.51 0.99-3.29-0.79-3.27 1.98 0.01 0.38 0.31 0.9 0.83 1.41-0.53 2.63" stroke="#776959" vector-effect="non-scaling-stroke"/> <path d="m262 190.54q-1.79-0.55-0.63-1.25 0.07-0.04 0.92-0.31 1.23-0.39-0.43-2.35a0.51 0.51-47 0 1-0.02-0.64q1.52-2-1.19-1.5-1.73 0.31-3.46 0.7-1.7 0.38-1.19-1.4" stroke="#776959" vector-effect="non-scaling-stroke"/> <path d="m289.75 184.54q-0.24 0.91-0.81 1.63-0.81 1.02-0.96 1.48-0.53 1.6-0.27 3.35" stroke="#5a4a38" vector-effect="non-scaling-stroke"/> <path d="m295.25 196.46q-24.54-4-48.97 0.66" stroke="#9c8f83" vector-effect="non-scaling-stroke"/> <path d="m222 359.04q-0.63-10.25-2.5-17.04-2.26-8.23-7.6-21.87-0.04-0.09-0.19-0.78-0.19-0.92-1.46-0.64" stroke="#e1e1e2" vector-effect="non-scaling-stroke"/> <path d="m249.54 256.25 2.64 6.1a0.43 0.41-31.1 0 0 0.65 0.14q3.17-2.43 6.92-2.59 5.4-0.22 10.51 1.58" stroke="#e2a6a8" vector-effect="non-scaling-stroke"/> <path d="m301.54 259.5q-1.03-1.23-1.79 0.25-0.69 1.34-3.44 0.69-10.36-2.46-19.01 2.97-2.19 1.38-2.3 4.08l-0.47 11.26a1.15 0.77 80.6 0 1-0.39 0.85q-0.39 0.25-0.76-0.04a1.22 0.73-78.4 0 1-0.31-0.88q0.07-6.23 0.16-12.46 0.02-1.74-0.7-2.76-0.88-1.22-2.27-1.98" stroke="#e7acae" vector-effect="non-scaling-stroke"/> <path d="m270.26 261.48q7.45 0.19 13.82-3.72 0.39-0.24 0.91-0.26 1.57-0.06 2.72-1.09a1.69 1.01 8.9 0 1 0.84-0.34l5.7-0.78" stroke="#d7999e" vector-effect="non-scaling-stroke"/> <path d="m283 250.04 3 1.17" stroke="#7c544b" vector-effect="non-scaling-stroke"/> <path d="m286 251.21q-2.71 0.57-5.45 0.39-1.39-0.1-1.91 0.49-0.58 0.65-1.08 1.94" stroke="#8a625a" vector-effect="non-scaling-stroke"/> <path d="m277.56 254.03q-4.86-3.28-10.5-3.92a1.29 1.11-58.3 0 0-0.88 0.28q-2.33 1.86-5.18 0.82" stroke="#7c544b" vector-effect="non-scaling-stroke"/> <path d="m300.5 253.79q-2.88 1.67-6.25 1.5" stroke="#c98d92" vector-effect="non-scaling-stroke"/> <path d="m294.25 255.29q-7.05-0.38-13.95 1.16a1.33 0.98-74.1 0 0-0.71 0.55q-0.53 0.85-1.59 0.81a1.76 1.28 22.5 0 0-0.92 0.22q-3.04 1.94-6.83 0.47-3.15-1.22-7.44-1.08a1.6 1.44 59.3 0 1-0.9-0.28q-2.51-1.83-5.66-1.93" stroke="#c4878c" vector-effect="non-scaling-stroke"/> <path d="m357.36 148.41q-1.86-7.12-6.71-12.82" stroke="#eeedee" vector-effect="non-scaling-stroke"/> <path d="m350.65 135.59q-1.57-3.03-5.34-6.4-4.29-3.84-8.7-7.54-1.36-1.15-4.67-2.84-6.4-3.26-11.86 0.81-5.03 3.76-7.27 8.69-5.76 12.7-3.7 26.6 0.96 6.52 3.24 10.47 2.86 4.98 8.09 7.93 10.79 6.09 22.03 3.91 10.18-1.97 14.85-8.96 5.48-8.2 0.04-19.85" stroke="#f4f4f3" vector-effect="non-scaling-stroke"/> <path d="m350.65 135.59-7.11-4.84" stroke="#e2e2e2" vector-effect="non-scaling-stroke"/> <path d="m343.54 130.75q-8.11-5.85-17.29-2.25-2.14 0.84-4.16 2.89-0.24 0.24-0.47 0.84-0.35 0.87-1.56 2.33-5.09 6.19-7.06 15.94-0.66 3.27 0.55 7.71a0.34 0.33 61.4 0 0 0.54 0.17q1.27-1.16 0.91-3.38-0.42-2.57 0.42-5.46 1.28-4.45 1.34-4.67 2.5-9.65 11.35-13.63 3.46-1.55 7.01-1.37 3.66 0.19 7.13 1.67" stroke="#dcd5cf" vector-effect="non-scaling-stroke"/> <path d="m342.25 131.54q7.47 4.8 11.81 13.4 1 1.98 3.3 3.47" stroke="#e2e2e2" vector-effect="non-scaling-stroke"/> <path d="m343.54 130.75q-0.27 0.95-1.29 0.79" stroke="#d6cfc9" vector-effect="non-scaling-stroke"/> <path d="m215.75 137.21q-11.47 11.92-9.02 28.51 0.98 6.63 4.71 10.09 9.56 8.89 22.75 3.88 2.79-1.07 5.37-2.55 3.99-2.3 5.11-3 8.75-5.44 9.79-16.39" stroke="#f3efed" vector-effect="non-scaling-stroke"/> <path d="m254.46 157.75q2.01-16.78-6.77-30.19-2.73-4.16-7.31-5.86-3.72-1.38-7.78-0.03-5.43 1.8-9.42 6.27-1.59 1.78 0.61 0.85 6.3-2.7 13.15-0.48 1.13 0.37 0.91 1.4a0.52 0.48 14.4 0 1-0.64 0.34q-7.35-2.03-14.48 0.61-0.24 0.09-0.47 0.06t-0.46-0.07a1 0.76 20.7 0 0-0.85 0.25l-5.2 6.31" stroke="#f4f4f3" vector-effect="non-scaling-stroke"/> <path d="m254.46 157.75q-1.86 0.27-2.21 1.5-2.29 7.97-7.44 12.81-1.13 1.07-2.31-0.85" stroke="#e7e4e1" vector-effect="non-scaling-stroke"/> <path d="m242.5 171.21q4.44-5.26 4.54-12.21" stroke="#7b7876" vector-effect="non-scaling-stroke"/> <path d="m247.04 159q0.29-1.64 1.68-1.24a0.45 0.41 13.4 0 0 0.56-0.31q1.56-8.37-3.24-15.45" stroke="#dcd5cf" vector-effect="non-scaling-stroke"/> <path d="m246.04 142q-8.35-13.92-24.04-7.96" stroke="#d2cdc7" vector-effect="non-scaling-stroke"/> <path d="m222 134.04-5.25 3" stroke="#dcd5cf" vector-effect="non-scaling-stroke"/> <path d="m216.75 137.04-1 0.17" stroke="#e7e4e1" vector-effect="non-scaling-stroke"/> <path d="m222.75 135.54q-2.81 1.13-5.56 2.39-1.25 0.58-0.44-0.89" stroke="#dbd1c8" vector-effect="non-scaling-stroke"/> <path d="m244.54 144q-0.18 0.88 0.37 1.58 0.91 1.17-0.66 0.96" stroke="#dbd1c8" vector-effect="non-scaling-stroke"/> <path d="m244.25 146.54q-6.26-8.97-16.75-7.54-11 1.5-15.76 12.21-5.67 12.76 3.7 22.92" stroke="#7a746f" vector-effect="non-scaling-stroke"/> <path d="m215.44 174.13q12.78 9.36 24.56-0.92" stroke="#cca47d" vector-effect="non-scaling-stroke"/> <path d="m240 173.21 2.5-2" stroke="#7a746f" vector-effect="non-scaling-stroke"/> <path d="m246.04 142q-0.44 1.24-1.5 2" stroke="#c6baae" vector-effect="non-scaling-stroke"/> <path d="m244.54 144q-2.79-4-6.53-7.05-2.27-1.85-5.04-2.2-5.12-0.64-10.22 0.79" stroke="#d1c8c0" vector-effect="non-scaling-stroke"/> <path d="m222.75 135.54q-1.61-0.16-0.75-1.5" stroke="#c6baae" vector-effect="non-scaling-stroke"/> <path d="m244.25 146.54q2.63 5.95 2.79 12.46" stroke="#6f655d" vector-effect="non-scaling-stroke"/> <path d="m240 173.21-0.04-0.71" stroke="#603812" vector-effect="non-scaling-stroke"/> <path d="m239.96 172.5q5.75-5.71 4.75-14" stroke="#724f1a" vector-effect="non-scaling-stroke"/> <path d="m244.71 158.5q0.31-3.93-0.67-7.3" stroke="#221610" vector-effect="non-scaling-stroke"/> <path d="m244.04 151.2q-0.33-6.1-5.8-7.92-1.14-0.38-2.2-0.93-1.21-0.63-2.24-0.71-12.06-0.91-19.3 7.61-3.16 3.72-3.04 10.25" stroke="#36291c" vector-effect="non-scaling-stroke"/> <path d="m211.46 159.5q-1.06 8.28 4.79 13.96" stroke="#724f1a" vector-effect="non-scaling-stroke"/> <path d="m216.25 173.46q-0.22 0.45-0.81 0.67" stroke="#603812" vector-effect="non-scaling-stroke"/> <path d="m244.71 158.5q0.42-2.68-1.92-3" stroke="#865d26" vector-effect="non-scaling-stroke"/> <path d="m242.79 155.5q-0.74-7.57-7.79-10.29" stroke="#9a928d" vector-effect="non-scaling-stroke"/> <path d="m239.96 172.5q-3.66 3.24-8.23 4.02-4.2 0.72-7.96 0.26-4.11-0.5-7.52-3.32" stroke="#c47f28" vector-effect="non-scaling-stroke"/> <path d="m244.04 151.2q-3.89-4.73-9.1-7.7a1.53 1.25 50.7 0 0-0.94-0.19q-1.93 0.33 1 1.9" stroke="#4a3727" vector-effect="non-scaling-stroke"/> <path d="m235 145.21-1.46 0.54" stroke="#afa599" vector-effect="non-scaling-stroke"/> <path d="m233.54 145.75-1.04-1.56a1.07 0.85 70.7 0 0-0.75-0.47q-16.22-0.99-18.96 14.83" stroke="#2f251a" vector-effect="non-scaling-stroke"/> <path d="m212.79 158.55q-1.17 3.58-1.33 0.95" stroke="#9a7032" vector-effect="non-scaling-stroke"/> <path d="m242.79 155.5-0.54 1.21" stroke="#ebca98" vector-effect="non-scaling-stroke"/> <path d="m233.54 145.75q-0.7 0.53-1.16 1.25-0.57 0.91-0.84 1.45-0.76 1.53 1.04 2.6a1.55 1.54-60.7 0 0 2.15-0.61q1.2-2.27 2.44-1.07a1.57 1.06-79.2 0 1 0.38 0.88q0.32 3 1.36 5.82 1.06 2.92 3.34 0.64" stroke="#808080" vector-effect="non-scaling-stroke"/> <path d="m242.25 156.71q-0.63 7.55-5.69 12.85-4.98 5.23-11.17 4.11-5.03-0.9-8.46-5.38-3.09-4.05-4.14-9.74" stroke="#6b4b18" vector-effect="non-scaling-stroke"/> <path d="m304.12 171.61q0.88-1.33 0.9-2.61a0.82 0.76 14.5 0 0-0.46-0.72q-15.89-7.72-32.62-4.34-9.61 1.93-19.59 7.47-0.69 0.38-1.12 0.79-1.85 1.72 0.78 1.61 0.67-0.03 1.41-0.37 24.33-11.02 49.78-1.53a0.8 0.78-62.5 0 0 0.92-0.3" stroke="#f1f1f2" vector-effect="non-scaling-stroke"/> <path d="m316.82 201.35q-2.02-0.3-1.24 1.4a1.13 1.02-3.8 0 0 0.72 0.57q3.89 1.04 1.38-1.52a1.58 1.41 69.4 0 0-0.86-0.45" stroke="#f3f3f3" vector-effect="non-scaling-stroke"/> <path d="m316.65 217.19q-0.08 2.17 1.92 1.95a0.77 0.73-84.6 0 0 0.64-0.56q0.92-3.32-2.06-2.1a0.81 0.8-10.4 0 0-0.5 0.71" stroke="#eeedee" vector-effect="non-scaling-stroke"/> <path d="m317.75 232.97a1.93 1.55 99.4 0 0 1.8444-1.6509 1.93 1.55 99.4 0 0-1.214-2.1573 1.93 1.55 99.4 0 0-1.8444 1.6509 1.93 1.55 99.4 0 0 1.214 2.1573" stroke="#eeedee" vector-effect="non-scaling-stroke"/> <path d="m319.21 163.5q6.65 12.98 21.04 10.75 5.5-0.85 10.25-5.21" stroke="#cda883" vector-effect="non-scaling-stroke"/> <path d="m350.5 169.04q4.82-4.98 5-11.04 0.35-11.67-9.47-18.77-9.04-6.55-18.57-3.02-4.44 1.65-6.97 4.88-2.67 3.4-3.49 8.16-1.35 7.8 2.21 14.25" stroke="#747474" vector-effect="non-scaling-stroke"/> <path d="m350.5 169.04q-0.81 0.12-0.79-0.54" stroke="#593410" vector-effect="non-scaling-stroke"/> <path d="m349.71 168.5q3.95-4.09 3.61-9.81-0.38-6.53-4.57-11.48" stroke="#6b4b18" vector-effect="non-scaling-stroke"/> <path d="m348.75 147.21q-2.54-5.1-8.19-8.02-5.94-3.07-11 0.35-0.06 0.03-0.66 0.32-0.68 0.33-0.65 1.35" stroke="#362f25" vector-effect="non-scaling-stroke"/> <path d="m328.25 141.21q-6.06 3.56-7.12 10.31-0.18 1.12 0.14 1.94 0.6 1.52 1.91 1.06 0.91-0.33 1.46-1.65 2.4-5.7 4.36-11.58" stroke="#808080" vector-effect="non-scaling-stroke"/> <path d="m329 141.29q1.04-1.06 2.5-1.29 11.05-1.75 16.71 7.5" stroke="#362f25" vector-effect="non-scaling-stroke"/> <path d="m348.21 147.5q5.51 11.71-3.65 19.81-4.34 3.85-9.62 2.95-4.19-0.71-7.91-4.69-4.16-4.45-6.29-10.41" stroke="#6b4b18" vector-effect="non-scaling-stroke"/> <path d="m320.74 155.16q-0.55-0.71-1.2-0.97a0.41 0.39-77.2 0 0-0.53 0.36q-0.35 3.92 0.7 7.7" stroke="#593410" vector-effect="non-scaling-stroke"/> <path d="m319.71 162.25 0.29 0.96" stroke="#6b4b18" vector-effect="non-scaling-stroke"/> <path d="m320 163.21q-0.52-0.08-0.79 0.29" stroke="#593410" vector-effect="non-scaling-stroke"/> <path d="m349.71 168.5q-4.73 3.51-9.71 4-2.26 0.22-6.34 0.12-3.62-0.1-6.03-1.45-4.92-2.75-7.63-7.96" stroke="#c47f28" vector-effect="non-scaling-stroke"/> <path d="m319.71 162.25 0.5-4.01a1.67 0.73 52.3 0 0-0.23-0.92q-0.59-1.2 0.76-2.16" stroke="#c47f28" vector-effect="non-scaling-stroke"/> <path d="m348.75 147.21q-0.42-0.03-0.54 0.29" stroke="#a1793d" vector-effect="non-scaling-stroke"/> <path d="m329 141.29-0.75-0.08" stroke="#b5aea5" vector-effect="non-scaling-stroke"/> <path d="m329.37 152.42a3.66 2.47 113.8 0 0 3.737-2.352 3.66 2.47 113.8 0 0-0.783-4.3456 3.66 2.47 113.8 0 0-3.737 2.352 3.66 2.47 113.8 0 0 0.783 4.3456" stroke="#808080" vector-effect="non-scaling-stroke"/> <path d="m217.47 150.96q-1.8 2.23-1.52 5.28 0.29 3.14 1.93 0.45 1.35-2.2 3.73-3.41a0.87 0.83-12.9 0 0 0.48-0.72q0.4-7.83-4.62-1.6" stroke="#808080" vector-effect="non-scaling-stroke"/> <path d="m224.33 224.4a1.85 1.05 93.3 0 0 1.1548-1.7865 1.85 1.05 93.3 0 0-0.9418-1.9073 1.85 1.05 93.3 0 0-1.1548 1.7865 1.85 1.05 93.3 0 0 0.9418 1.9073" stroke="#dcdbdc" vector-effect="non-scaling-stroke"/> <path d="m228.47 233.52a1.95 1.38 96.7 0 0 1.5981-1.7757 1.95 1.38 96.7 0 0-1.1431-2.0977 1.95 1.38 96.7 0 0-1.5981 1.7757 1.95 1.38 96.7 0 0 1.1431 2.0977" stroke="#e8e8e8" vector-effect="non-scaling-stroke"/> <path d="m390.19 318.69q-8.96 18.62-9.68 38.31-0.07 1.72 0.86 1.07a1.14 0.89 78.6 0 0 0.41-0.82q1.16-20.01 9.27-38.3a0.71 0.48-64.9 0 0-0.13-0.82q-0.37-0.19-0.73 0.56" stroke="#ded8d3" vector-effect="non-scaling-stroke"/> </g> <path d="m394.01 120.34q-17.81-27.34-21.7-33.4-5.54-8.65-13.38-14.4-0.29-3.21-2.69-4.18-0.81-0.33-4.33-1-3.6-0.68-6.83 0.67-2.62 1.08-5.65 3.51-5.3 4.24-7.12 11.76-0.51 2.11-2.02 3.67-1.27 1.31-3.08 0.53 1.58-10.64 9.69-17.61 5.67-4.88 12.77-5.14 3.74-0.14 8.51 1.41 4.13 1.35 8 3.41 5.14 2.73 10.16 5.66 18.01 10.51 31.97 15.46 12.86 4.55 25.63 9.34 3.56 1.34 4.87 3.03 1.89 2.45 1.69 5.94-0.78 13.8-9.74 23.56-4.55 4.95-9.19 6.17-6.13 1.62-11.76-2.54-7.16-5.3-15.8-15.85z" fill="#fff"/> <path d="m358.93 72.54q-8.04-4.58-15.37 0.02-8.24 5.18-9.38 14.87-0.28 2.4 0.18 7.14 0.34 3.57 0.64 7.14l-8-4.42q1.39-0.3-0.01-1.82a1.55 1.53 21.2 0 1-0.4-0.89q-0.43-4.06 0.62-7.08 1.81 0.78 3.08-0.53 1.51-1.56 2.02-3.67 1.82-7.52 7.12-11.76 3.03-2.43 5.65-3.51 3.23-1.35 6.83-0.67 3.52 0.67 4.33 1 2.4 0.97 2.69 4.18z" fill="#e6e6e6"/> <path d="m229.5 76.21q-2.29 0.62-3.19-0.27-7.4-7.35-17-3.68-0.87 0.33-1.24 0.93-0.44 0.67-0.57 1.52-5.08 2.68-8.49 7.3-3.43 4.63-6.3 9.64-8.23 14.4-17.35 27.65-5.68 6.57-11.42 12.89-2.66 2.92-5.99 4.87-3.71 2.17-7.26 2.03-4.39-0.19-8.13-3.15-11.76-9.32-14.25-24.2-0.89-5.32 3.25-8.43 1.02-0.76 5.46-2.26 24.5-8.28 39.67-16.86 10.06-5.69 20.14-11.34 3.55-1.99 7.34-3.37 4.23-1.55 7.83-1.67 10.54-0.35 17.5 8.4z" fill="#fff"/> <path d="m358.93 72.54q7.84 5.75 13.38 14.4 3.89 6.06 21.7 33.4-1.77 2.61-3.26 8.41-3.85 14.99-20.91 18.87-11.04-27.64-34.84-45.91-0.3-3.57-0.64-7.14-0.46-4.74-0.18-7.14 1.14-9.69 9.38-14.87 7.33-4.6 15.37-0.02z" fill="#d6898c"/> <path d="m229.5 76.21q3.6 4.19 6.06 11.48 3.26 9.61-5.18 13.96-0.07-3.08-0.14-7.15-0.16-8.9-5.88-15.62-6.77-7.96-16.86-4.17 0.13-0.85 0.57-1.52 0.37-0.6 1.24-0.93 9.6-3.67 17 3.68 0.9 0.89 3.19 0.27z" fill="#e8e8e7"/> <path d="m230.38 101.65 0.62 1.14q-22.56 19.21-32.81 47.06-0.83-1.45-1.63-1.66-12.25-3.31-16.87-15.13-1.33-3.4-4.33-13.76 9.12-13.25 17.35-27.65 2.87-5.01 6.3-9.64 3.41-4.62 8.49-7.3 10.09-3.79 16.86 4.17 5.72 6.72 5.88 15.62 0.07 4.07 0.14 7.15z" fill="#d6898c"/> <path d="m327 97.29 8 4.42q23.8 18.27 34.84 45.91 8 20.52 12.83 41.95 2.14 9.5-0.96 18.68-0.1-0.76-0.68-1.11a1 0.85 15.7 0 1-0.47-0.7q-0.1-1.37-1.56-0.94-6.01 1.77-11.54 1.72-3.46-0.03-10.26-1.86-8.03-2.16-10.2-2.36-5.79-0.53-10.44 1.56-2.7 1.22-1.81 4.65-4.5 1.07-0.19 1.44 0.56 0.05 0.98 0.19 6.49 2.1 8 8.91 1.16 7.1-2.83 13-1.26 0.01-1.44-1.14-0.17-1.13-0.19-1.21-1.53-4.81-4.66-1.99-0.27 0.25-1.45 2.36-0.76 1.37-2.51 1.73 3.14-5.79 1.72-12.41-2.67 0.88-3.33 3.67a0.75 0.62-70.4 0 0 0.29 0.8q0.71 0.39 1.15-0.75 0.49-1.28 1.5-0.81-3.75 21.03-23.79 28.04-2.55-0.12-5.1 0.12-0.39 0.03-0.66-0.05-0.76-0.24-0.32-0.7 0.2-0.21 0.62-0.3 2.59-0.62 5.06-1.39 1.42-0.45 0.1-1.15-2.63-1.4-4.82-3.33-1.97-1.74-3.6-4.54-4.46-7.67-6.32-16.45 6.7-5.11 10.79-12.46 3.84-5.98 3.04-13.04 0.11-3.42-1.33-6.5-0.32-2.29 0.62-4.25a1.3 1.1-0.7 0 1 0.69-0.6q5.28-1.99 0.14-4.55-0.33-0.16-0.59-0.46-1.3-1.51-0.88 0.56a0.66 0.66 89.7 0 1-0.77 0.78q-2.08-0.39-4.11-1.06-1.3-0.43-3.86-1.75-7.15-3.67-15.21-4.53-5.65-0.6-14.68-0.08-6.54 0.39-12.16 2.19-6.37 2.04-10.82 4.59-5.61 3.22-8.52 8.47-3.3 5.97-5.31 10.44-2.11 4.68-5.78 7.81a0.25 0.23-36.1 0 1-0.37-0.04l-0.16-0.26a0.61 0.46 60.5 0 0-0.67-0.29q-2.93 1.45-3.29 0.34a1.01 0.28 74.2 0 0-0.46-0.75l-0.53-0.11q-0.85-0.19-0.91-0.22-10.57-6.7-21.52-1.42-3.17 1.54-5.46 5.04-0.22 0.34-0.84 2.34-0.41 1.31-1.72 2.06-3.4-10.45-1.73-20.19 3.65-21.27 11.63-45.46 10.25-27.85 32.81-47.06 2.48-2.3 5.55-3.75 11.69-5.55 24.43-7.89 33.97-6.24 66.02 6.14zm30.36 51.12q-1.86-7.12-6.71-12.82-1.57-3.03-5.34-6.4-4.29-3.84-8.7-7.54-1.36-1.15-4.67-2.84-6.4-3.26-11.86 0.81-5.03 3.76-7.27 8.69-5.76 12.7-3.7 26.6 0.96 6.52 3.24 10.47 2.86 4.98 8.09 7.93 10.79 6.09 22.03 3.91 10.18-1.97 14.85-8.96 5.48-8.2 0.04-19.85zm-141.61-11.2q-11.47 11.92-9.02 28.51 0.98 6.63 4.71 10.09 9.56 8.89 22.75 3.88 2.79-1.07 5.37-2.55 3.99-2.3 5.11-3 8.75-5.44 9.79-16.39 2.01-16.78-6.77-30.19-2.73-4.16-7.31-5.86-3.72-1.38-7.78-0.03-5.43 1.8-9.42 6.27-1.59 1.78 0.61 0.85 6.3-2.7 13.15-0.48 1.13 0.37 0.91 1.4a0.52 0.48 14.4 0 1-0.64 0.34q-7.35-2.03-14.48 0.61-0.24 0.09-0.47 0.06t-0.46-0.07a1 0.76 20.7 0 0-0.85 0.25l-5.2 6.31zm88.37 34.4q0.88-1.33 0.9-2.61a0.82 0.76 14.5 0 0-0.46-0.72q-15.89-7.72-32.62-4.34-9.61 1.93-19.59 7.47-0.69 0.38-1.12 0.79-1.85 1.72 0.78 1.61 0.67-0.03 1.41-0.37 24.33-11.02 49.78-1.53a0.8 0.78-62.5 0 0 0.92-0.3zm12.7 29.74q-2.02-0.3-1.24 1.4a1.13 1.02-3.8 0 0 0.72 0.57q3.89 1.04 1.38-1.52a1.58 1.41 69.4 0 0-0.86-0.45zm-0.17 15.84q-0.08 2.17 1.92 1.95a0.77 0.73-84.6 0 0 0.64-0.56q0.92-3.32-2.06-2.1a0.81 0.8-10.4 0 0-0.5 0.71zm1.1048 15.784a1.93 1.55 99.4 0 0 1.8444-1.6509 1.93 1.55 99.4 0 0-1.214-2.1573 1.93 1.55 99.4 0 0-1.8444 1.6509 1.93 1.55 99.4 0 0 1.214 2.1573z" fill="#fff"/> <path d="m350.65 135.59-7.11-4.84q-8.11-5.85-17.29-2.25-2.14 0.84-4.16 2.89-0.24 0.24-0.47 0.84-0.35 0.87-1.56 2.33-5.09 6.19-7.06 15.94-0.66 3.27 0.55 7.71a0.34 0.33 61.4 0 0 0.54 0.17q1.27-1.16 0.91-3.38-0.42-2.57 0.42-5.46 1.28-4.45 1.34-4.67 2.5-9.65 11.35-13.63 3.46-1.55 7.01-1.37 3.66 0.19 7.13 1.67 7.47 4.8 11.81 13.4 1 1.98 3.3 3.47 5.44 11.65-0.04 19.85-4.67 6.99-14.85 8.96-11.24 2.18-22.03-3.91-5.23-2.95-8.09-7.93-2.28-3.95-3.24-10.47-2.06-13.9 3.7-26.6 2.24-4.93 7.27-8.69 5.46-4.07 11.86-0.81 3.31 1.69 4.67 2.84 4.41 3.7 8.7 7.54 3.77 3.37 5.34 6.4zm-31.44 27.91q6.65 12.98 21.04 10.75 5.5-0.85 10.25-5.21 4.82-4.98 5-11.04 0.35-11.67-9.47-18.77-9.04-6.55-18.57-3.02-4.44 1.65-6.97 4.88-2.67 3.4-3.49 8.16-1.35 7.8 2.21 14.25z" fill="#e8e8e7"/> <path d="m254.46 157.75q-1.86 0.27-2.21 1.5-2.29 7.97-7.44 12.81-1.13 1.07-2.31-0.85 4.44-5.26 4.54-12.21 0.29-1.64 1.68-1.24a0.45 0.41 13.4 0 0 0.56-0.31q1.56-8.37-3.24-15.45-8.35-13.92-24.04-7.96l-5.25 3-1 0.17 5.2-6.31a1 0.76 20.7 0 1 0.85-0.25q0.23 0.04 0.46 0.07t0.47-0.06q7.13-2.64 14.48-0.61a0.52 0.48 14.4 0 0 0.64-0.34q0.22-1.03-0.91-1.4-6.85-2.22-13.15 0.48-2.2 0.93-0.61-0.85 3.99-4.47 9.42-6.27 4.06-1.35 7.78 0.03 4.58 1.7 7.31 5.86 8.78 13.41 6.77 30.19z" fill="#e8e8e7"/> <path d="m343.54 130.75q-0.27 0.95-1.29 0.79-3.47-1.48-7.13-1.67-3.55-0.18-7.01 1.37-8.85 3.98-11.35 13.63-0.06 0.22-1.34 4.67-0.84 2.89-0.42 5.46 0.36 2.22-0.91 3.38a0.34 0.33 61.4 0 1-0.54-0.17q-1.21-4.44-0.55-7.71 1.97-9.75 7.06-15.94 1.21-1.46 1.56-2.33 0.23-0.6 0.47-0.84 2.02-2.05 4.16-2.89 9.18-3.6 17.29 2.25z" fill="#d0c2b6"/> <path d="m343.54 130.75 7.11 4.84q4.85 5.7 6.71 12.82-2.3-1.49-3.3-3.47-4.34-8.6-11.81-13.4 1.02 0.16 1.29-0.79z" fill="#dcdbdc"/> <path d="m246.04 142q-0.44 1.24-1.5 2-2.79-4-6.53-7.05-2.27-1.85-5.04-2.2-5.12-0.64-10.22 0.79-1.61-0.16-0.75-1.5 15.69-5.96 24.04 7.96z" fill="#bcb1a6"/> <path d="m222 134.04q-0.86 1.34 0.75 1.5-2.81 1.13-5.56 2.39-1.25 0.58-0.44-0.89l5.25-3z" fill="#d0c2b6"/> <path d="m244.54 144q-0.18 0.88 0.37 1.58 0.91 1.17-0.66 0.96-6.26-8.97-16.75-7.54-11 1.5-15.76 12.21-5.67 12.76 3.7 22.92 12.78 9.36 24.56-0.92l2.5-2q1.18 1.92 2.31 0.85 5.15-4.84 7.44-12.81 0.35-1.23 2.21-1.5-1.04 10.95-9.79 16.39-1.12 0.7-5.11 3-2.58 1.48-5.37 2.55-13.19 5.01-22.75-3.88-3.73-3.46-4.71-10.09-2.45-16.59 9.02-28.51l1-0.17q-0.81 1.47 0.44 0.89 2.75-1.26 5.56-2.39 5.1-1.43 10.22-0.79 2.77 0.35 5.04 2.2 3.74 3.05 6.53 7.05z" fill="#e6dfda"/> <path d="m350.5 169.04q-0.81 0.12-0.79-0.54 3.95-4.09 3.61-9.81-0.38-6.53-4.57-11.48-2.54-5.1-8.19-8.02-5.94-3.07-11 0.35-0.06 0.03-0.66 0.32-0.68 0.33-0.65 1.35-6.06 3.56-7.12 10.31-0.18 1.12 0.14 1.94 0.6 1.52 1.91 1.06 0.91-0.33 1.46-1.65 2.4-5.7 4.36-11.58 1.04-1.06 2.5-1.29 11.05-1.75 16.71 7.5 5.51 11.71-3.65 19.81-4.34 3.85-9.62 2.95-4.19-0.71-7.91-4.69-4.16-4.45-6.29-10.41-0.55-0.71-1.2-0.97a0.41 0.39-77.2 0 0-0.53 0.36q-0.35 3.92 0.7 7.7l0.29 0.96q-0.52-0.08-0.79 0.29-3.56-6.45-2.21-14.25 0.82-4.76 3.49-8.16 2.53-3.23 6.97-4.88 9.53-3.53 18.57 3.02 9.82 7.1 9.47 18.77-0.18 6.06-5 11.04zm-21.127-16.621a3.66 2.47 113.8 0 0 3.737-2.352 3.66 2.47 113.8 0 0-0.783-4.3456 3.66 2.47 113.8 0 0-3.737 2.352 3.66 2.47 113.8 0 0 0.783 4.3456z"/> <path d="m348.75 147.21q-0.42-0.03-0.54 0.29-5.66-9.25-16.71-7.5-1.46 0.23-2.5 1.29l-0.75-0.08q-0.03-1.02 0.65-1.35 0.6-0.29 0.66-0.32 5.06-3.42 11-0.35 5.65 2.92 8.19 8.02z" fill="#6b5d4a"/> <path d="m244.25 146.54q2.63 5.95 2.79 12.46-0.1 6.95-4.54 12.21l-2.5 2-0.04-0.71q5.75-5.71 4.75-14 0.31-3.93-0.67-7.3-0.33-6.1-5.8-7.92-1.14-0.38-2.2-0.93-1.21-0.63-2.24-0.71-12.06-0.91-19.3 7.61-3.16 3.72-3.04 10.25-1.06 8.28 4.79 13.96-0.22 0.45-0.81 0.67-9.37-10.16-3.7-22.92 4.76-10.71 15.76-12.21 10.49-1.43 16.75 7.54z" fill="#0e0804"/> <path d="m328.25 141.21 0.75 0.08q-1.96 5.88-4.36 11.58-0.55 1.32-1.46 1.65-1.31 0.46-1.91-1.06-0.32-0.82-0.14-1.94 1.06-6.75 7.12-10.31z" fill="#fff"/> <path d="m244.04 151.2q-3.89-4.73-9.1-7.7a1.53 1.25 50.7 0 0-0.94-0.19q-1.93 0.33 1 1.9l-1.46 0.54-1.04-1.56a1.07 0.85 70.7 0 0-0.75-0.47q-16.22-0.99-18.96 14.83-1.17 3.58-1.33 0.95-0.12-6.53 3.04-10.25 7.24-8.52 19.3-7.61 1.03 0.08 2.24 0.71 1.06 0.55 2.2 0.93 5.47 1.82 5.8 7.92z" fill="#5e4a33"/> <path d="m246.04 142q4.8 7.08 3.24 15.45a0.45 0.41 13.4 0 1-0.56 0.31q-1.39-0.4-1.68 1.24-0.16-6.51-2.79-12.46 1.57 0.21 0.66-0.96-0.55-0.7-0.37-1.58 1.06-0.76 1.5-2z" fill="#d0c2b6"/> <path d="m244.04 151.2q0.98 3.37 0.67 7.3 0.42-2.68-1.92-3-0.74-7.57-7.79-10.29-2.93-1.57-1-1.9a1.53 1.25 50.7 0 1 0.94 0.19q5.21 2.97 9.1 7.7z" fill="#35241b"/> <path d="m233.54 145.75q-0.7 0.53-1.16 1.25-0.57 0.91-0.84 1.45-0.76 1.53 1.04 2.6a1.55 1.54-60.7 0 0 2.15-0.61q1.2-2.27 2.44-1.07a1.57 1.06-79.2 0 1 0.38 0.88q0.32 3 1.36 5.82 1.06 2.92 3.34 0.64-0.63 7.55-5.69 12.85-4.98 5.23-11.17 4.11-5.03-0.9-8.46-5.38-3.09-4.05-4.14-9.74 2.74-15.82 18.96-14.83a1.07 0.85 70.7 0 1 0.75 0.47l1.04 1.56zm-16.07 5.21q-1.8 2.23-1.52 5.28 0.29 3.14 1.93 0.45 1.35-2.2 3.73-3.41a0.87 0.83-12.9 0 0 0.48-0.72q0.4-7.83-4.62-1.6z"/> <path d="m235 145.21q7.05 2.72 7.79 10.29l-0.54 1.21q-2.28 2.28-3.34-0.64-1.04-2.82-1.36-5.82a1.57 1.06-79.2 0 0-0.38-0.88q-1.24-1.2-2.44 1.07a1.55 1.54-60.7 0 1-2.15 0.61q-1.8-1.07-1.04-2.6 0.27-0.54 0.84-1.45 0.46-0.72 1.16-1.25l1.46-0.54z" fill="#fff"/> <ellipse transform="translate(330.85,149.07) rotate(113.8)" rx="3.66" ry="2.47" fill="#fff"/> <path d="m348.75 147.21q4.19 4.95 4.57 11.48 0.34 5.72-3.61 9.81-4.73 3.51-9.71 4-2.26 0.22-6.34 0.12-3.62-0.1-6.03-1.45-4.92-2.75-7.63-7.96l-0.29-0.96 0.5-4.01a1.67 0.73 52.3 0 0-0.23-0.92q-0.59-1.2 0.76-2.16 2.13 5.96 6.29 10.41 3.72 3.98 7.91 4.69 5.28 0.9 9.62-2.95 9.16-8.1 3.65-19.81 0.12-0.32 0.54-0.29z" fill="#d69530"/> <path d="m217.47 150.96q5.02-6.23 4.62 1.6a0.87 0.83-12.9 0 1-0.48 0.72q-2.38 1.21-3.73 3.41-1.64 2.69-1.93-0.45-0.28-3.05 1.52-5.28z" fill="#fff"/> <path d="m320.74 155.16q-1.35 0.96-0.76 2.16a1.67 0.73 52.3 0 1 0.23 0.92l-0.5 4.01q-1.05-3.78-0.7-7.7a0.41 0.39-77.2 0 1 0.53-0.36q0.65 0.26 1.2 0.97z" fill="#b2681f"/> <path d="m242.79 155.5q2.34 0.32 1.92 3 1 8.29-4.75 14-3.66 3.24-8.23 4.02-4.2 0.72-7.96 0.26-4.11-0.5-7.52-3.32-5.85-5.68-4.79-13.96 0.16 2.63 1.33-0.95 1.05 5.69 4.14 9.74 3.43 4.48 8.46 5.38 6.19 1.12 11.17-4.11 5.06-5.3 5.69-12.85l0.54-1.21z" fill="#d69530"/> <path d="m304.12 171.61a0.8 0.78-62.5 0 1-0.92 0.3q-25.45-9.49-49.78 1.53-0.74 0.34-1.41 0.37-2.63 0.11-0.78-1.61 0.43-0.41 1.12-0.79 9.98-5.54 19.59-7.47 16.73-3.38 32.62 4.34a0.82 0.76 14.5 0 1 0.46 0.72q-0.02 1.28-0.9 2.61z" fill="#e2e3e5"/> <path d="m320 163.21q2.71 5.21 7.63 7.96 2.41 1.35 6.03 1.45 4.08 0.1 6.34-0.12 4.98-0.49 9.71-4-0.02 0.66 0.79 0.54-4.75 4.36-10.25 5.21-14.39 2.23-21.04-10.75 0.27-0.37 0.79-0.29z" fill="#b2681f"/> <path d="m239.96 172.5 0.04 0.71q-11.78 10.28-24.56 0.92 0.59-0.22 0.81-0.67 3.41 2.82 7.52 3.32 3.76 0.46 7.96-0.26 4.57-0.78 8.23-4.02z" fill="#b2681f"/> <path d="m305.46 191.25q-3.23-4.94-8.27-7.19-26.3-11.7-51.88 1.75-13.08 6.88-8.02 21.69 2.43 8.29 8.92 14 9.99 8.95 23.37 12.33a1.92 1.64 7.7 0 1 1.44 1.61l0.21 7.74a1.02 0.85-20.1 0 1-0.46 0.79q-8.41 5.68-18.27 8.32l-4.75 0.75h-1.5q-4.06 0.32-6.94-1.1-21.27-10.53-21.13-34.63 0-0.51-0.14-0.02-1.21 4.07-0.79 6.96 3.33 22.78 25.07 30.12 1.32 2.13 2.18 7.63 2.48 15.92 16.4 25.96 0.09 1-0.87 1.19a1.15 0.39 40 0 1-0.78-0.3q-0.26-0.18-0.54-0.07a0.61 0.47 68.2 0 0-0.21 0.75q4.42 10.77 10.59 20.64 6.27 10.06 15.58 17.38 4.35 3.42 9.56 5.25 6.83 2.38 11.69-2.62 3.74-3.86 5.52-8.24 8.76-21.64 10.86-45.69 0.52-5.98 0.89-7.31 0.55-2-0.14-3.9 10.75-7.07 21.64-13.85 5.91-3.68 13.52-10.44 0.97 4.26 1.07 8.6 0.13 5.66 0.14 5.82 1.53 29.66-4.22 58.82-3.63 18.44-13.43 34.34-0.04 0.08-2.03 3.54-2.03 3.55-5.11 6.3a1.31 1.3 23.9 0 1-0.87 0.33q-50.13 0.41-100.26 0.33-0.89 0-0.66-0.22 0.11-0.11 0.35-0.11 13.91 0 27.92 0 3.39 0 1.39-2.74-15.8-21.63-23-48.01-4.53-16.59-8.82-46.72 8.53 6.26 15.85 12.88 0.55 0.5 0.29-0.2-3.12-8.39-4.79-17.16a1.08 0.98-83.6 0 0-0.53-0.73l-16.31-8.36-2.94-2.75q-1.02-1.52-5.81-10.15-5.75-10.34-0.25-19.63 0.95-1.62 2.06-2.47 1.27-0.98 2.92-1.51 1.86-0.61-0.1-0.75-1.17-0.08-2.66 1-8.5 6.17-5.72 16.86 2.37 9.17 8.52 18.69l2.08 1.75q3.58 0.55 0.71 1.5-1.13 0.38-2.24-0.8-0.33-0.36-0.8-0.53l-2.32-0.83q-8.39-5.73-17.39-14.09-8.66-8.05-12.96-18.25 1.31-0.75 1.72-2.06 0.62-2 0.84-2.34 2.29-3.5 5.46-5.04 10.95-5.28 21.52 1.42 0.06 0.03 0.91 0.22l0.53 0.11a1.01 0.28 74.2 0 1 0.46 0.75q0.36 1.11 3.29-0.34a0.61 0.46 60.5 0 1 0.67 0.29l0.16 0.26a0.25 0.23-36.1 0 0 0.37 0.04q3.67-3.13 5.78-7.81 2.01-4.47 5.31-10.44 2.91-5.25 8.52-8.47 4.45-2.55 10.82-4.59 5.62-1.8 12.16-2.19 9.03-0.52 14.68 0.08 8.06 0.86 15.21 4.53 2.56 1.32 3.86 1.75 2.03 0.67 4.11 1.06a0.66 0.66 89.7 0 0 0.77-0.78q-0.42-2.07 0.88-0.56 0.26 0.3 0.59 0.46 5.14 2.56-0.14 4.55a1.3 1.1-0.7 0 0-0.69 0.6q-0.94 1.96-0.62 4.25zm-81.126 33.147a1.85 1.05 93.3 0 0 1.1548-1.7865 1.85 1.05 93.3 0 0-0.9418-1.9073 1.85 1.05 93.3 0 0-1.1548 1.7865 1.85 1.05 93.3 0 0 0.9418 1.9073zm4.139 9.1198a1.95 1.38 96.7 0 0 1.5981-1.7757 1.95 1.38 96.7 0 0-1.1431-2.0977 1.95 1.38 96.7 0 0-1.5981 1.7757 1.95 1.38 96.7 0 0 1.1431 2.0977z" fill="#f4f4f4"/> <path d="m305.46 191.25q1.44 3.08 1.33 6.5-0.55 6.55-4.29 11.96-3.19 3.7-7.66 5.67-9.39 4.12-15.81-2.94-4.13-8.57 4.22-8.98 2.95 1.09 4.94 3.85 1.71 2.39 4.32 3.26 2.33 0.79 5.02-0.38 8.39-3.66 7.28-14.13-0.23-2.16-1.04-3.71-0.67-1.28-2.85-2.22-2.19-0.95-3.86-2.19-3.48-2.61-7.31-3.4-1.07-0.48-2.25-0.5-15.71-3.03-31.5-0.25l-3.5 1q-4.26 1.81-8.44 3.81-2.25 1.07-3.57 2.53-1.95 2.15-2.24 3.87-0.6 3.52 0.35 1.15 2.12-5.32 7.21-2.64a1.34 1.31-37.6 0 0 0.93 0.11l11.51-2.83 3.75-0.25q10.25-0.67 20.5 0 2.54 0.75 5.21 0.46l3.79 0.71q3.54 0.62 7.44 2.6 2.25 1.15 1.15 3.01l-1.09-0.53q-2.54-1.73-5.5-2.55-18.59-5.12-37.42-0.86-5.05 1.14-9.8 3.74-4.18 1.27-7.49 4.47a1.4 1.31-20.5 0 0-0.41 0.83q-0.48 5.36 4.3 7.72 4.9 2.41 8.34-1.63 2.49-2.93 5.76-5.13 2.6-1.76 4.71 0.57 1.37 1.51 1.84 5.48-1.6 3.91-5.39 6.01-4.98 2.75-10.19 0.81-3.77-1.4-8.3-6.16-0.45-1.69-2.16-2.59-5.06-14.81 8.02-21.69 25.58-13.45 51.88-1.75 5.04 2.25 8.27 7.19z" fill="#251b14"/> <path d="m287.5 184.04q0.61 1.5-1.51 0.99-3.29-0.79-3.27 1.98 0.01 0.38 0.31 0.9 0.83 1.41-0.53 2.63-10.25-0.67-20.5 0-1.79-0.55-0.63-1.25 0.07-0.04 0.92-0.31 1.23-0.39-0.43-2.35a0.51 0.51-47 0 1-0.02-0.64q1.52-2-1.19-1.5-1.73 0.31-3.46 0.7-1.7 0.38-1.19-1.4 15.79-2.78 31.5 0.25z" fill="#837567"/> <path d="m256 183.79q-0.51 1.78 1.19 1.4 1.73-0.39 3.46-0.7 2.71-0.5 1.19 1.5a0.51 0.51-47 0 0 0.02 0.64q1.66 1.96 0.43 2.35-0.85 0.27-0.92 0.31-1.16 0.7 0.63 1.25l-3.75 0.25-0.88-4.21a1.39 1.31 76.4 0 0-1.66-1.08q-3.2 0.92-3.21-0.71l3.5-1z" fill="#6b5d4a"/> <path d="m287.5 184.04q1.18 0.02 2.25 0.5-0.24 0.91-0.81 1.63-0.81 1.02-0.96 1.48-0.53 1.6-0.27 3.35-2.67 0.29-5.21-0.46 1.36-1.22 0.53-2.63-0.3-0.52-0.31-0.9-0.02-2.77 3.27-1.98 2.12 0.51 1.51-0.99z" fill="#6b5d4a"/> <path d="m289.75 184.54q3.83 0.79 7.31 3.4 1.67 1.24 3.86 2.19 2.18 0.94 2.85 2.22 0.81 1.55 1.04 3.71 1.11 10.47-7.28 14.13-2.69 1.17-5.02 0.38-2.61-0.87-4.32-3.26-1.99-2.76-4.94-3.85 1.54-2.92 4.83-2.56 0.76 0.08 1.33 0.03 0.67-0.06 1.34-0.08 2.17-0.04 1.86-1.87a1.66 0.92 67.1 0 1 0.1-0.94q0.79-1.44 2.54-1.58 1.86 0.57 3.75 0.33l1.09 0.53q0.49 0.59 1.39 1.03 0.43 0.22 0.75 0.62 0.92 1.14 1.54 0.22a1.26 0.96 59.6 0 0 0.11-0.92q-0.4-1.49-0.97-2.92-0.57-1.46-1.74-2.44-3.15-2.65-7.13-3.95a1.08 0.94 33.6 0 0-0.9 0.12q-1.29 0.94-1.64 2.63l-3.79-0.71q-0.26-1.75 0.27-3.35 0.15-0.46 0.96-1.48 0.57-0.72 0.81-1.63z" fill="#493725"/> <path d="m252.5 184.79q0.01 1.63 3.21 0.71a1.39 1.31 76.4 0 1 1.66 1.08l0.88 4.21-11.51 2.83a1.34 1.31-37.6 0 1-0.93-0.11q-5.09-2.68-7.21 2.64-0.95 2.37-0.35-1.15 0.29-1.72 2.24-3.87 1.32-1.46 3.57-2.53 4.18-2 8.44-3.81z" fill="#493c2e"/> <path d="m300.09 197.32q1.1-1.86-1.15-3.01-3.9-1.98-7.44-2.6 0.35-1.69 1.64-2.63a1.08 0.94 33.6 0 1 0.9-0.12q3.98 1.3 7.13 3.95 1.17 0.98 1.74 2.44 0.57 1.43 0.97 2.92a1.26 0.96 59.6 0 1-0.11 0.92q-0.62 0.92-1.54-0.22-0.32-0.4-0.75-0.62-0.9-0.44-1.39-1.03z" fill="#493725"/> <path d="m299 196.79q-1.89 0.24-3.75-0.33-24.54-4-48.97 0.66 4.75-2.6 9.8-3.74 18.83-4.26 37.42 0.86 2.96 0.82 5.5 2.55z" fill="#e6dfda"/> <path d="m295.25 196.46q-1.75 0.14-2.54 1.58a1.66 0.92 67.1 0 0-0.1 0.94q0.31 1.83-1.86 1.87-0.67 0.02-1.34 0.08-0.57 0.05-1.33-0.03-3.29-0.36-4.83 2.56-8.35 0.41-4.22 8.98 3.92 8.18 13.23 5.59 6.47-1.81 10.28-7.28l1.21 0.04q-4.09 7.35-10.79 12.46l-9.21 5.21q0.9-1.15 2.29-1.7 2.73-1.08 3.29-4.52 0.1-0.58-0.4-0.3l-15.78 8.83a1.12 1.09-17.4 0 1-1.66-0.84q-0.87-9.78-0.69-19 0.01-0.33 0.13-0.73 0.29-1-0.1-0.75a0.95 0.77 77.4 0 0-0.36 0.73l-0.46 20.3a0.38 0.36-77.5 0 1-0.52 0.35l-22.04-10.11a0.75 0.49 26.6 0 0-0.84 0.1l-0.4 0.68q-6.49-5.71-8.92-14 1.71 0.9 2.16 2.59 2.09 5.53 7.05 7.41 12.95 4.9 16.83-8.07-0.47-3.97-1.84-5.48-2.11-2.33-4.71-0.57-3.27 2.2-5.76 5.13-3.44 4.04-8.34 1.63-4.78-2.36-4.3-7.72a1.4 1.31-20.5 0 1 0.41-0.83q3.31-3.2 7.49-4.47 24.43-4.66 48.97-0.66z" fill="#513e2c"/> <path d="m306.79 197.75q0.8 7.06-3.04 13.04l-1.21-0.04q0.12-0.55-0.04-1.04 3.74-5.41 4.29-11.96z" fill="#8b898b"/> <path d="m317.68 201.8q2.51 2.56-1.38 1.52a1.13 1.02-3.8 0 1-0.72-0.57q-0.78-1.7 1.24-1.4a1.58 1.41 69.4 0 1 0.86 0.45z" fill="#e6e6e6"/> <path d="m381.71 208.25q-1.97 7.08-5.86 13.33-0.75 1.21-0.28 2.78-1.49-2.29-2.05 0.58a1.7 1.2 81.4 0 1-0.43 0.86l-14.34 13.99q-11.58 6.16-23.42 11.8-0.37 0.18-0.69 0.18-1.2-0.01-0.14-0.98 2.76-1.03 2.88-4.53 2.77-9.72 6.43-16.2 3.05-5.39 1.23-10.81-2.11-8.14-10.29-10.04-0.89-3.43 1.81-4.65 4.65-2.09 10.44-1.56 2.17 0.2 10.2 2.36 6.8 1.83 10.26 1.86 5.53 0.05 11.54-1.72 1.46-0.43 1.56 0.94a1 0.85 15.7 0 0 0.47 0.7q0.58 0.35 0.68 1.11z" fill="#f4f4f4"/> <path d="m263.33 209.43q-3.88 12.97-16.83 8.07-4.96-1.88-7.05-7.41 4.53 4.76 8.3 6.16 5.21 1.94 10.19-0.81 3.79-2.1 5.39-6.01z" fill="#a99990"/> <path d="m283.75 228.46-11.22 5.16a0.76 0.69-15.5 0 0-0.44 0.69q0.14 2.87 0.3 5.74 0.13 2.27 1.31 3.49 1.29 1.33 3.24 2.27 4.31 2.09 6.81 2.9-0.09 0.91-0.75 1.33l-9.97-3.42a2.16 1.67 37.2 0 0-1.43 0.01l-10.6 4.58q-6.6 1.73-7.81 1.98-0.93 0.18-0.69-0.9 9.86-2.64 18.27-8.32a1.02 0.85-20.1 0 0 0.46-0.79l-0.21-7.74a1.92 1.64 7.7 0 0-1.44-1.61q-13.38-3.38-23.37-12.33l0.4-0.68a0.75 0.49 26.6 0 1 0.84-0.1l22.04 10.11a0.38 0.36-77.5 0 0 0.52-0.35l0.46-20.3a0.95 0.77 77.4 0 1 0.36-0.73q0.39-0.25 0.1 0.75-0.12 0.4-0.13 0.73-0.18 9.22 0.69 19a1.12 1.09-17.4 0 0 1.66 0.84l15.78-8.83q0.5-0.28 0.4 0.3-0.56 3.44-3.29 4.52-1.39 0.55-2.29 1.7z" fill="#35241b"/> <path d="m334.75 209.21q8.18 1.9 10.29 10.04-0.6 0.64-1.5 0.5-1.51-6.81-8-8.91-0.42-0.14-0.98-0.19-4.31-0.37 0.19-1.44z" fill="#7b797a"/> <path d="m302.5 209.71q0.16 0.49 0.04 1.04-3.81 5.47-10.28 7.28-9.31 2.59-13.23-5.59 6.42 7.06 15.81 2.94 4.47-1.97 7.66-5.67z" fill="#bcb1a6"/> <path d="m222.25 244.71q-1.52 0.26-1.04 2.04-6.15-9.52-8.52-18.69-2.78-10.69 5.72-16.86 1.49-1.08 2.66-1 1.96 0.14 0.1 0.75-1.65 0.53-2.92 1.51-1.11 0.85-2.06 2.47-5.5 9.29 0.25 19.63 4.79 8.63 5.81 10.15z" fill="#7b797a"/> <path d="m317.15 216.48q2.98-1.22 2.06 2.1a0.77 0.73-84.6 0 1-0.64 0.56q-2 0.22-1.92-1.95a0.81 0.8-10.4 0 1 0.5-0.71z" fill="#dcdbdc"/> <path d="m246.25 253.04q-1.73 0.52-2.5 0.21-1.68-0.69-1.43 1.12-21.74-7.34-25.07-30.12-0.42-2.89 0.79-6.96 0.14-0.49 0.14 0.02-0.14 24.1 21.13 34.63 2.88 1.42 6.94 1.1z" fill="#8b898b"/> <path d="m345.04 219.25q1.82 5.42-1.23 10.81-3.66 6.48-6.43 16.2-0.43-1.45-2.15-0.06 1.77-7.14 5.48-13.45 3.99-5.9 2.83-13 0.9 0.14 1.5-0.5z" fill="#c3c2c4"/> <path d="m332.18 220.09-0.39 2.91q-1.01-0.47-1.5 0.81-0.44 1.14-1.15 0.75a0.75 0.62-70.4 0 1-0.29-0.8q0.66-2.79 3.33-3.67z" fill="#dcdbdc"/> <path d="m332.18 220.09q1.42 6.62-1.72 12.41-3.35 8.17-10.21 13.71-5.39 4.04-11.75 6.25 0.06-0.76-0.5-1.25v-0.17q20.04-7.01 23.79-28.04l0.39-2.91z" fill="#7b797a"/> <ellipse transform="translate(224.44,222.55) rotate(93.3)" rx="1.85" ry="1.05" fill="#c3c2c4"/> <path d="m292.96 223.25q1.86 8.78 6.32 16.45 1.63 2.8 3.6 4.54 2.19 1.93 4.82 3.33 1.32 0.7-0.1 1.15-2.47 0.77-5.06 1.39-0.42 0.09-0.62 0.3-0.44 0.46 0.32 0.7 0.27 0.08 0.66 0.05 2.55-0.24 5.1-0.12v0.17l-5 0.83q-9.89-0.16-19.25-3.33-2.5-0.81-6.81-2.9-1.95-0.94-3.24-2.27-1.18-1.22-1.31-3.49-0.16-2.87-0.3-5.74a0.76 0.69-15.5 0 1 0.44-0.69l11.22-5.16 9.21-5.21z" fill="#e8e8e7"/> <path d="m375.57 224.36q8.67 13.34 13.62 25.2 7.16 17.18 7.62 36.49 0.2 7.99-0.98 14.83-1.32 7.65-4.08 14.37-0.78 1.9 0.38 3.15a1.66 1.15 29.5 0 1 0.41 0.85q0.6 6.68 2.77 15.69 2.84 11.74-2.89 22.29-0.83 1.52-2.55 1.53l-165.87 0.45q-2.38-23.02-13.04-43.53-2.67-8.78-3.46-15.93-2.93-26.46 10.51-50.16 7 5.1 12.67 11.44 4.29 30.13 8.82 46.72 7.2 26.38 23 48.01 2 2.74-1.39 2.74-14.01 0-27.92 0-0.24 0-0.35 0.11-0.23 0.22 0.66 0.22 50.13 0.08 100.26-0.33a1.31 1.3 23.9 0 0 0.87-0.33q3.08-2.75 5.11-6.3 1.99-3.46 2.03-3.54 9.8-15.9 13.43-34.34 5.75-29.16 4.22-58.82-0.01-0.16-0.14-5.82-0.1-4.34-1.07-8.6 0.44-0.4 0.54-0.96l14.34-13.99a1.7 1.2 81.4 0 0 0.43-0.86q0.56-2.87 2.05-0.58zm14.62 94.33q-8.96 18.62-9.68 38.31-0.07 1.72 0.86 1.07a1.14 0.89 78.6 0 0 0.41-0.82q1.16-20.01 9.27-38.3a0.71 0.48-64.9 0 0-0.13-0.82q-0.37-0.19-0.73 0.56z" fill="#fff"/> <path d="m340.71 232.75q-3.71 6.31-5.48 13.45l-2.98 4.01q-1.87-0.32-3.1 0.93-1.63 1.65-3.4 3.15-1.56-0.49-1.92-2.04-0.1-0.45-0.38-0.9l-3.2-5.14q6.86-5.54 10.21-13.71 1.75-0.36 2.51-1.73 1.18-2.11 1.45-2.36 3.13-2.82 4.66 1.99 0.02 0.08 0.19 1.21 0.18 1.15 1.44 1.14z" fill="#eaeaeb"/> <ellipse transform="translate(318.07,231.07) rotate(99.4)" rx="1.93" ry="1.55" fill="#dcdbdc"/> <ellipse transform="translate(228.7 231.58) rotate(96.7)" rx="1.95" ry="1.38" fill="#dcdbdc"/> <path d="m358.75 239.79q-0.1 0.56-0.54 0.96-7.61 6.76-13.52 10.44-10.89 6.78-21.64 13.85-11.96 10.52-25.87 18.22l3.78-5.51q0.65 1.03 1.6 0.06 11.58-11.77 23.19-23.52 1.77-1.5 3.4-3.15 1.23-1.25 3.1-0.93 1.07 0.56 2.25 0.58-1.06 0.97 0.14 0.98 0.32 0 0.69-0.18 11.84-5.64 23.42-11.8z" fill="#c5c8cd"/> <path d="m222.25 244.71 2.94 2.75q-0.59 1.66-1.9 1.04l-2.08-1.75q-0.48-1.78 1.04-2.04z" fill="#251b14"/> <path d="m337.38 246.26q-0.12 3.5-2.88 4.53-1.18-0.02-2.25-0.58l2.98-4.01q1.72-1.39 2.15 0.06z" fill="#251b14"/> <path d="m320.25 246.21 3.2 5.14q0.28 0.45 0.38 0.9 0.36 1.55 1.92 2.04-11.61 11.75-23.19 23.52-0.95 0.97-1.6-0.06 3.63-6.91 5.5-14.5-0.26 1.43 0.63 1.24a1.1 0.84-80.7 0 0 0.67-0.63q1.85-4.42 0.38-8.89-0.53-1.4 0.36-2.51 6.36-2.21 11.75-6.25z" fill="#dcdbdc"/> <path d="m283 250.04 3 1.17q-2.71 0.57-5.45 0.39-1.39-0.1-1.91 0.49-0.58 0.65-1.08 1.94-4.86-3.28-10.5-3.92a1.29 1.11-58.3 0 0-0.88 0.28q-2.33 1.86-5.18 0.82l10.6-4.58a2.16 1.67 37.2 0 1 1.43-0.01l9.97 3.42z" fill="#5e4a33"/> <path d="m225.19 247.46 16.31 8.36a1.08 0.98-83.6 0 1 0.53 0.73q1.67 8.77 4.79 17.16 0.26 0.7-0.29 0.2-7.32-6.62-15.85-12.88-5.67-6.34-12.67-11.44 0.58-0.27 0.63-1.75l2.32 0.83q0.47 0.17 0.8 0.53 1.11 1.18 2.24 0.8 2.87-0.95-0.71-1.5 1.31 0.62 1.9-1.04z" fill="#cfcfd3"/> <path d="m283.75 248.71q9.36 3.17 19.25 3.33-1.06 0.3-0.79 1.46l-1.71 0.29-14.5-2.58-3-1.17q0.66-0.42 0.75-1.33z" fill="#995d62"/> <path d="m277.56 254.03-0.83 1.77q-0.16 0.34-0.25 0.94-0.23 1.39-2.41 0.03-0.32-0.19-0.67-0.3-8.37-2.54-17.15-1.26l-6.71 1.04q0.18-2.08-1.5-2.5-0.04-0.4-0.29-0.71l4.75-0.75q-0.24 1.08 0.69 0.9 1.21-0.25 7.81-1.98 2.85 1.04 5.18-0.82a1.29 1.11-58.3 0 1 0.88-0.28q5.64 0.64 10.5 3.92z" fill="#995d62"/> <path d="m286 251.21 14.5 2.58q-2.88 1.67-6.25 1.5-7.05-0.38-13.95 1.16a1.33 0.98-74.1 0 0-0.71 0.55q-0.53 0.85-1.59 0.81a1.76 1.28 22.5 0 0-0.92 0.22q-3.04 1.94-6.83 0.47-3.15-1.22-7.44-1.08a1.6 1.44 59.3 0 1-0.9-0.28q-2.51-1.83-5.66-1.93 8.78-1.28 17.15 1.26 0.35 0.11 0.67 0.3 2.18 1.36 2.41-0.03 0.09-0.6 0.25-0.94l0.83-1.77q0.5-1.29 1.08-1.94 0.52-0.59 1.91-0.49 2.74 0.18 5.45-0.39z" fill="#b67a80"/> <path d="m308 251.21q0.56 0.49 0.5 1.25-0.89 1.11-0.36 2.51l-1.68 8.28q-1.87 7.59-5.5 14.5l-3.78 5.51q-16.53 12.91-36.28 4.7-13.92-10.04-16.4-25.96-0.86-5.5-2.18-7.63-0.25-1.81 1.43-1.12 0.77 0.31 2.5-0.21h1.5q0.25 0.31 0.29 0.71-0.83 8.04 1.27 14.19 3.28 9.58 13.52 13.19 7.15 2.52 14.41 1.92 7.52-0.62 13.3-4.64 9.26-6.42 11-18.91 0.96-2.92 0.67-6-0.27-1.16 0.79-1.46l5-0.83z" fill="#35241b"/> <path d="m302.21 253.5q0.29 3.08-0.67 6-1.03-1.23-1.79 0.25-0.69 1.34-3.44 0.69-10.36-2.46-19.01 2.97-2.19 1.38-2.3 4.08l-0.47 11.26a1.15 0.77 80.6 0 1-0.39 0.85q-0.39 0.25-0.76-0.04a1.22 0.73-78.4 0 1-0.31-0.88q0.07-6.23 0.16-12.46 0.02-1.74-0.7-2.76-0.88-1.22-2.27-1.98 7.45 0.19 13.82-3.72 0.39-0.24 0.91-0.26 1.57-0.06 2.72-1.09a1.69 1.01 8.9 0 1 0.84-0.34l5.7-0.78q3.37 0.17 6.25-1.5l1.71-0.29z" fill="#dc9fa4"/> <path d="m248.04 253.75q1.68 0.42 1.5 2.5l2.64 6.1a0.43 0.41-31.1 0 0 0.65 0.14q3.17-2.43 6.92-2.59 5.4-0.22 10.51 1.58 1.39 0.76 2.27 1.98 0.72 1.02 0.7 2.76-0.09 6.23-0.16 12.46a1.22 0.73-78.4 0 0 0.31 0.88q0.37 0.29 0.76 0.04a1.15 0.77 80.6 0 0 0.39-0.85l0.47-11.26q0.11-2.7 2.3-4.08 8.65-5.43 19.01-2.97 2.75 0.65 3.44-0.69 0.76-1.48 1.79-0.25-1.74 12.49-11 18.91-5.78 4.02-13.3 4.64-7.26 0.6-14.41-1.92-10.24-3.61-13.52-13.19-2.1-6.15-1.27-14.19z" fill="#f1b9b8"/> <path d="m294.25 255.29-5.7 0.78a1.69 1.01 8.9 0 0-0.84 0.34q-1.15 1.03-2.72 1.09-0.52 0.02-0.91 0.26-6.37 3.91-13.82 3.72-5.11-1.8-10.51-1.58-3.75 0.16-6.92 2.59a0.43 0.41-31.1 0 1-0.65-0.14l-2.64-6.1 6.71-1.04q3.15 0.1 5.66 1.93a1.6 1.44 59.3 0 0 0.9 0.28q4.29-0.14 7.44 1.08 3.79 1.47 6.83-0.47a1.76 1.28 22.5 0 1 0.92-0.22q1.06 0.04 1.59-0.81a1.33 0.98-74.1 0 1 0.71-0.55q6.9-1.54 13.95-1.16z" fill="#d29398"/> <path d="m308.14 254.97q1.47 4.47-0.38 8.89a1.1 0.84-80.7 0 1-0.67 0.63q-0.89 0.19-0.63-1.24l1.68-8.28z" fill="#eaeaeb"/> <path d="m323.05 265.04q0.69 1.9 0.14 3.9-0.37 1.33-0.89 7.31-2.1 24.05-10.86 45.69-1.78 4.38-5.52 8.24-4.86 5-11.69 2.62-5.21-1.83-9.56-5.25-9.31-7.32-15.58-17.38-6.17-9.87-10.59-20.64a0.61 0.47 68.2 0 1 0.21-0.75q0.28-0.11 0.54 0.07a1.15 0.39 40 0 0 0.78 0.3q0.96-0.19 0.87-1.19 19.75 8.21 36.28-4.7 13.91-7.7 25.87-18.22z" fill="#e6e6e6"/> <path d="m210.96 315.68q10.66 20.51 13.04 43.53-0.98-0.29-2-0.17-0.63-10.25-2.5-17.04-2.26-8.23-7.6-21.87-0.04-0.09-0.19-0.78-0.19-0.92-1.46-0.64l0.71-3.03z" fill="#c3c2c4"/> <path d="m390.19 318.69q0.36-0.75 0.73-0.56a0.71 0.48-64.9 0 1 0.13 0.82q-8.11 18.29-9.27 38.3a1.14 0.89 78.6 0 1-0.41 0.82q-0.93 0.65-0.86-1.07 0.72-19.69 9.68-38.31z" fill="#bcb1a6"/> <path d="m210.25 318.71q1.27-0.28 1.46 0.64 0.15 0.69 0.19 0.78 5.34 13.64 7.6 21.87 1.87 6.79 2.5 17.04-4.53 0.64-9.01-0.29-1.64-0.34-2.43-1.81-5.77-10.75-2.81-22.69 2.28-9.18 2.5-15.54z" fill="#fff"/> </svg>